<svg xmlns="http://www.w3.org/2000/svg" viewBox="0 0 400 300" width="400" height="300">
  <rect width="400" height="300" fill="#F2ECD8"/>
  <rect width="400" height="300" fill="none" stroke="#D8CDA8" stroke-width="2"/>
  <path d="M200,280 Q199.9,177.4 199.1,74.9" stroke="#8F6B6B" stroke-width="3" fill="none" stroke-linecap="round" opacity="0.85"/>
  <path d="M199.9,257.2 Q179.5,269.2 160.8,217.1 Q212.4,237.1 199.9,257.2 Z" fill="#5A3F3F" opacity="0.9"/>
  <line x1="199.9" y1="257.2" x2="160.8" y2="217.1" stroke="#8F6B6B" stroke-width="1" opacity="0.5"/>
  <path d="M199.8,234.4 Q189.7,221.3 237.2,186.2 Q215.0,240.9 199.8,234.4 Z" fill="#5A3F3F" opacity="0.9"/>
  <line x1="199.8" y1="234.4" x2="237.2" y2="186.2" stroke="#8F6B6B" stroke-width="1" opacity="0.5"/>
  <path d="M199.7,211.6 Q181.3,224.9 146.7,167.5 Q209.4,191.1 199.7,211.6 Z" fill="#5A3F3F" opacity="0.9"/>
  <line x1="199.7" y1="211.6" x2="146.7" y2="167.5" stroke="#8F6B6B" stroke-width="1" opacity="0.5"/>
  <path d="M199.6,188.8 Q187.1,172.0 237.6,136.1 Q219.5,195.4 199.6,188.8 Z" fill="#5A3F3F" opacity="0.9"/>
  <line x1="199.6" y1="188.8" x2="237.6" y2="136.1" stroke="#8F6B6B" stroke-width="1" opacity="0.5"/>
  <path d="M199.5,166.0 Q183.1,177.8 156.3,121.6 Q211.8,149.9 199.5,166.0 Z" fill="#5A3F3F" opacity="0.9"/>
  <line x1="199.5" y1="166.0" x2="156.3" y2="121.6" stroke="#8F6B6B" stroke-width="1" opacity="0.5"/>
  <path d="M199.4,143.3 Q188.1,128.4 233.1,99.8 Q216.6,150.5 199.4,143.3 Z" fill="#5A3F3F" opacity="0.9"/>
  <line x1="199.4" y1="143.3" x2="233.1" y2="99.8" stroke="#8F6B6B" stroke-width="1" opacity="0.5"/>
  <path d="M199.3,120.5 Q178.0,135.3 150.9,80.2 Q210.0,96.8 199.3,120.5 Z" fill="#5A3F3F" opacity="0.9"/>
  <line x1="199.3" y1="120.5" x2="150.9" y2="80.2" stroke="#8F6B6B" stroke-width="1" opacity="0.5"/>
  <path d="M199.2,97.7 Q187.0,79.9 247.9,43.2 Q218.3,107.9 199.2,97.7 Z" fill="#5A3F3F" opacity="0.9"/>
  <line x1="199.2" y1="97.7" x2="247.9" y2="43.2" stroke="#8F6B6B" stroke-width="1" opacity="0.5"/>
</svg>