<svg xmlns="http://www.w3.org/2000/svg" viewBox="0 0 400 300" width="400" height="300">
  <rect width="400" height="300" fill="#F2ECD8"/>
  <rect width="400" height="300" fill="none" stroke="#D8CDA8" stroke-width="2"/>
  <path d="M200,280 Q200.0,177.8 200.4,75.5" stroke="#8A9C5E" stroke-width="3" fill="none" stroke-linecap="round" opacity="0.85"/>
  <path d="M200.1,245.9 Q181.8,254.7 167.5,199.2 Q214.6,231.8 200.1,245.9 Z" fill="#4A5A3A" opacity="0.9"/>
  <line x1="200.1" y1="245.9" x2="167.5" y2="199.2" stroke="#8A9C5E" stroke-width="1" opacity="0.5"/>
  <path d="M200.1,211.8 Q192.7,196.8 249.9,164.0 Q214.9,219.8 200.1,211.8 Z" fill="#4A5A3A" opacity="0.9"/>
  <line x1="200.1" y1="211.8" x2="249.9" y2="164.0" stroke="#8A9C5E" stroke-width="1" opacity="0.5"/>
  <path d="M200.2,177.8 Q181.7,187.2 149.9,123.5 Q211.0,160.0 200.2,177.8 Z" fill="#4A5A3A" opacity="0.9"/>
  <line x1="200.2" y1="177.8" x2="149.9" y2="123.5" stroke="#8A9C5E" stroke-width="1" opacity="0.5"/>
  <path d="M200.3,143.7 Q190.8,129.1 253.4,90.8 Q214.8,153.2 200.3,143.7 Z" fill="#4A5A3A" opacity="0.9"/>
  <line x1="200.3" y1="143.7" x2="253.4" y2="90.8" stroke="#8A9C5E" stroke-width="1" opacity="0.5"/>
  <path d="M200.4,109.6 Q177.4,118.8 162.8,57.7 Q216.3,90.7 200.4,109.6 Z" fill="#4A5A3A" opacity="0.9"/>
  <line x1="200.4" y1="109.6" x2="162.8" y2="57.7" stroke="#8A9C5E" stroke-width="1" opacity="0.5"/>
</svg>